# xmcd
#
# Track frame offsets:
#	183
#	14998
#	28918
#	43050
#	58045
#	70895
#	87638
#	101735
#	118448
#	145013
#	156010
#	168923
#	184638
#	202295
#
# Disc length: 2930 seconds
# Revision: 2
# Processed by: cddbd v1.5.2PL0 Copyright (c) Steve Scherf et al.
# Submitted via: dBpowerAMP V12.0
#
DISCID=d70b700e
DTITLE=Rose Marie - Songs from My Heart
DYEAR=1994
DGENRE=Country
TTITLE0=The Old Rugged Cross
TTITLE1=A Legend in My Time
TTITLE2=The Sunshine of Your Smile
TTITLE3=Wheel of Fortune
TTITLE4=Ave Maria
TTITLE5=I'll Never Fall in Love Again
TTITLE6=We'll Meet Again
TTITLE7=When You Were Sweet Sixteen
TTITLE8=All the Love in the World
TTITLE9=I Apologise
TTITLE10=I Fall to Pieces
TTITLE11=Now Is the Hour
TTITLE12=Pal of My Cradle Days
TTITLE13=Cry
EXTD=
EXTT0=
EXTT1=
EXTT2=
EXTT3=
EXTT4=
EXTT5=
EXTT6=
EXTT7=
EXTT8=
EXTT9=
EXTT10=
EXTT11=
EXTT12=
EXTT13=
PLAYORDER=
